<svg width="24" height="24" viewBox="0 0 24 24" fill="none" xmlns="http://www.w3.org/2000/svg">
<path fill-rule="evenodd" clip-rule="evenodd" d="M16.2247 16.2237C14.5967 17.8519 12.4306 18.7492 10.1274 18.7492C7.8243 18.7492 5.65989 17.8518 4.0318 16.2237C0.669748 12.8615 0.669748 7.39206 4.0318 4.03028C5.71268 2.34903 7.91923 1.50924 10.1274 1.50924C12.3357 1.50924 14.5439 2.3504 16.2247 4.03028C19.5868 7.3922 19.5868 12.862 16.2247 16.2237ZM23.7794 22.711L17.7998 16.7311C21.2253 12.7541 21.062 6.73351 17.2924 2.96248C13.3429 -0.987494 6.91336 -0.987494 2.96342 2.96248C-0.987808 6.91361 -0.987808 13.342 2.96342 17.2921C4.8769 19.2057 7.42033 20.2602 10.127 20.2602C12.5798 20.2602 14.8951 19.3869 16.7317 17.7995L22.7113 23.7794C22.8594 23.9275 23.0527 24 23.2445 24C23.4378 24 23.6311 23.9275 23.7792 23.7794C24.0736 23.4847 24.0736 23.006 23.7792 22.7115" fill="#3B3E44"/>
</svg>
